<?xml version="1.0" encoding="UTF-8"?>
<svg version="1.1" xmlns="http://www.w3.org/2000/svg" width="353" height="381">
<path d="M0 0 C116.49 0 232.98 0 353 0 C353 125.73 353 251.46 353 381 C236.51 381 120.02 381 0 381 C0 255.27 0 129.54 0 0 Z " fill="#F5F6EF" transform="translate(0,0)"/>
<path d="M0 0 C16.5 0 33 0 50 0 C50 4.29 50 8.58 50 13 C58.25 13 66.5 13 75 13 C75 17.29 75 21.58 75 26 C79.29 26 83.58 26 88 26 C88 30.29 88 34.58 88 39 C96.25 39 104.5 39 113 39 C113 42.96 113 46.92 113 51 C117.29 51 121.58 51 126 51 C126 54.96 126 58.92 126 63 C130.29 63 134.58 63 139 63 C139 108.87 139 154.74 139 202 C134.71 202 130.42 202 126 202 C126 206.29 126 210.58 126 215 C122.04 215.33 118.08 215.66 114 216 C113.67 219.63 113.34 223.26 113 227 C104.75 227 96.5 227 88 227 C88 231.29 88 235.58 88 240 C79.75 240 71.5 240 63 240 C63 244.29 63 248.58 63 253 C58.71 253 54.42 253 50 253 C50 257.29 50 261.58 50 266 C33.5 266 17 266 0 266 C0 261.71 0 257.42 0 253 C-4.29 253 -8.58 253 -13 253 C-13 248.71 -13 244.42 -13 240 C-21.25 240 -29.5 240 -38 240 C-38 235.71 -38 231.42 -38 227 C-46.25 227 -54.5 227 -63 227 C-63.33 223.37 -63.66 219.74 -64 216 C-67.96 215.67 -71.92 215.34 -76 215 C-76 210.71 -76 206.42 -76 202 C-80.29 202 -84.58 202 -89 202 C-89 156.46 -89 110.92 -89 64 C-84.71 64 -80.42 64 -76 64 C-76 59.71 -76 55.42 -76 51 C-71.71 51 -67.42 51 -63 51 C-63 46.71 -63 42.42 -63 38 C-54.75 38 -46.5 38 -38 38 C-38 34.04 -38 30.08 -38 26 C-33.71 26 -29.42 26 -25 26 C-25 21.71 -25 17.42 -25 13 C-16.75 13 -8.5 13 0 13 C0 8.71 0 4.42 0 0 Z " fill="#F6F8F0" transform="translate(150,58)"/>
<path d="M0 0 C116.49 0 232.98 0 353 0 C353 125.73 353 251.46 353 381 C236.51 381 120.02 381 0 381 C0 255.27 0 129.54 0 0 Z M149 7 C149 11.29 149 15.58 149 20 C140.75 20 132.5 20 124 20 C124 24.29 124 28.58 124 33 C120.04 33 116.08 33 112 33 C112 36.96 112 40.92 112 45 C103.42 45 94.84 45 86 45 C86 49.29 86 53.58 86 58 C77.75 58 69.5 58 61 58 C61 61.96 61 65.92 61 70 C56.71 70 52.42 70 48 70 C48 74.29 48 78.58 48 83 C39.75 83 31.5 83 23 83 C23 87.29 23 91.58 23 96 C18.71 96 14.42 96 10 96 C10 158.7 10 221.4 10 286 C14.29 286 18.58 286 23 286 C23 290.29 23 294.58 23 299 C31.25 299 39.5 299 48 299 C48 302.96 48 306.92 48 311 C56.25 311 64.5 311 73 311 C73 315.29 73 319.58 73 324 C77.29 324 81.58 324 86 324 C86 328.29 86 332.58 86 337 C94.25 337 102.5 337 111 337 C111 340.96 111 344.92 111 349 C115.29 349 119.58 349 124 349 C123.96744792 352.09244792 123.93489583 355.18489583 123.90234375 358.27734375 C123.68737429 360.91447634 123.68737429 360.91447634 125 362 C126.85369611 362.08737645 128.71067541 362.10698153 130.56640625 362.09765625 C131.69111328 362.09443359 132.81582031 362.09121094 133.97460938 362.08789062 C135.15861328 362.07951172 136.34261719 362.07113281 137.5625 362.0625 C138.75037109 362.05798828 139.93824219 362.05347656 141.16210938 362.04882812 C144.10809412 362.03699686 147.05405316 362.01906076 150 362 C150 365.96 150 369.92 150 374 C166.83 374 183.66 374 201 374 C201 370.04 201 366.08 201 362 C202.72089844 362.01160156 204.44179687 362.02320313 206.21484375 362.03515625 C208.45572809 362.04453234 210.69661359 362.05363273 212.9375 362.0625 C214.07380859 362.07087891 215.21011719 362.07925781 216.38085938 362.08789062 C217.46044922 362.09111328 218.54003906 362.09433594 219.65234375 362.09765625 C220.65257568 362.10289307 221.65280762 362.10812988 222.68334961 362.11352539 C224.96207228 362.26181095 224.96207228 362.26181095 226 361 C226.07244053 358.98035801 226.08377188 356.95832876 226.0625 354.9375 C226.041875 352.978125 226.02125 351.01875 226 349 C230.29 349 234.58 349 239 349 C239 345.04 239 341.08 239 337 C247.25 337 255.5 337 264 337 C264 332.71 264 328.42 264 324 C268.29 324 272.58 324 277 324 C277 319.71 277 315.42 277 311 C285.25 311 293.5 311 302 311 C302 307.04 302 303.08 302 299 C310.25 299 318.5 299 327 299 C327 294.71 327 290.42 327 286 C331.29 286 335.58 286 340 286 C340 223.3 340 160.6 340 96 C335.71 96 331.42 96 327 96 C327 91.71 327 87.42 327 83 C318.75 83 310.5 83 302 83 C302 79.04 302 75.08 302 71 C297.71 71 293.42 71 289 71 C289 66.71 289 62.42 289 58 C280.75 58 272.5 58 264 58 C264 53.71 264 49.42 264 45 C255.42 45 246.84 45 238 45 C238 41.04 238 37.08 238 33 C234.04 33 230.08 33 226 33 C226 28.71 226 24.42 226 20 C217.75 20 209.5 20 201 20 C201 16.04 201 12.08 201 8 C199.99253581 6.77099538 199.99253581 6.77099538 197.94358826 6.87974548 C196.58790489 6.8830764 196.58790489 6.8830764 195.20483398 6.88647461 C193.67335976 6.88658791 193.67335976 6.88658791 192.11094666 6.88670349 C191.0005452 6.89186478 189.89014374 6.89702606 188.74609375 6.90234375 C187.05021873 6.90446617 187.05021873 6.90446617 185.32008362 6.90663147 C181.69252935 6.91224981 178.06503576 6.92480542 174.4375 6.9375 C171.98502693 6.94251264 169.5325529 6.94707595 167.08007812 6.95117188 C161.05336187 6.9622252 155.02669124 6.97950212 149 7 Z " fill="#F8FAF4" transform="translate(0,0)"/>
<path d="M0 0 C4.29 0 8.58 0 13 0 C13 62.37 13 124.74 13 189 C21.25 189 29.5 189 38 189 C41.07318149 192.07318149 39 197.65386506 39 202 C47.25 202 55.5 202 64 202 C64 206.29 64 210.58 64 215 C68.29 215 72.58 215 77 215 C77 219.29 77 223.58 77 228 C85.25 228 93.5 228 102 228 C102 231.96 102 235.92 102 240 C106.29 240 110.58 240 115 240 C115 244.29 115 248.58 115 253 C123.25 253 131.5 253 140 253 C140 256.96 140 260.92 140 265 C156.5 265 173 265 190 265 C190 261.04 190 257.08 190 253 C198.25 253 206.5 253 215 253 C215 248.71 215 244.42 215 240 C219.29 240 223.58 240 228 240 C228 236.04 228 232.08 228 228 C236.25 228 244.5 228 253 228 C253 223.71 253 219.42 253 215 C257.29 215 261.58 215 266 215 C266 210.71 266 206.42 266 202 C274.25 202 282.5 202 291 202 C291 198.04 291 194.08 291 190 C291.33 189.67 291.66 189.34 292 189 C300.25 189 308.5 189 317 189 C317 126.63 317 64.26 317 0 C321.29 0 325.58 0 330 0 C330 62.7 330 125.4 330 190 C325.71 190 321.42 190 317 190 C317 194.29 317 198.58 317 203 C308.75 203 300.5 203 292 203 C292 206.96 292 210.92 292 215 C283.75 215 275.5 215 267 215 C267 219.29 267 223.58 267 228 C262.71 228 258.42 228 254 228 C254 232.29 254 236.58 254 241 C245.75 241 237.5 241 229 241 C229 244.96 229 248.92 229 253 C224.71 253 220.42 253 216 253 C216.0309375 255.9390625 216.0309375 255.9390625 216.0625 258.9375 C216.08377188 260.95832876 216.07244053 262.98035801 216 265 C215 266 215 266 212.68334961 266.11352539 C211.68311768 266.10828857 210.68288574 266.10305176 209.65234375 266.09765625 C208.57275391 266.09443359 207.49316406 266.09121094 206.38085938 266.08789062 C204.67639648 266.07532227 204.67639648 266.07532227 202.9375 266.0625 C201.79732422 266.05798828 200.65714844 266.05347656 199.48242188 266.04882812 C196.65492582 266.0369976 193.82745655 266.0190615 191 266 C191 269.96 191 273.92 191 278 C174.17 278 157.34 278 140 278 C140 274.04 140 270.08 140 266 C138.20691406 266.01160156 136.41382813 266.02320313 134.56640625 266.03515625 C132.23177187 266.04453229 129.89713637 266.05363269 127.5625 266.0625 C126.37849609 266.07087891 125.19449219 266.07925781 123.97460938 266.08789062 C122.84990234 266.09111328 121.72519531 266.09433594 120.56640625 266.09765625 C119.00321655 266.10551147 119.00321655 266.10551147 117.40844727 266.11352539 C115 266 115 266 114 265 C113.85644883 260.99779347 113.95783597 257.00558317 114 253 C109.71 253 105.42 253 101 253 C101 249.04 101 245.08 101 241 C92.75 241 84.5 241 76 241 C76 236.71 76 232.42 76 228 C71.71 228 67.42 228 63 228 C63 223.71 63 219.42 63 215 C54.75 215 46.5 215 38 215 C38 211.04 38 207.08 38 203 C29.75 203 21.5 203 13 203 C13 198.71 13 194.42 13 190 C8.71 190 4.42 190 0 190 C0 127.3 0 64.6 0 0 Z " fill="#646460" transform="translate(10,96)"/>
<path d="M0 0 C17.16 0 34.32 0 52 0 C52 4.29 52 8.58 52 13 C60.25 13 68.5 13 77 13 C77 17.29 77 21.58 77 26 C85.25 26 93.5 26 102 26 C102 29.96 102 33.92 102 38 C105.96 38 109.92 38 114 38 C114 42.29 114 46.58 114 51 C105.75 51 97.5 51 89 51 C89 47.04 89 43.08 89 39 C84.71 39 80.42 39 76 39 C76 34.71 76 30.42 76 26 C67.75 26 59.5 26 51 26 C51 21.71 51 17.42 51 13 C34.5 13 18 13 1 13 C1 17.29 1 21.58 1 26 C-7.25 26 -15.5 26 -24 26 C-24 30.29 -24 34.58 -24 39 C-28.29 39 -32.58 39 -37 39 C-37 42.96 -37 46.92 -37 51 C-45.25 51 -53.5 51 -62 51 C-62 55.29 -62 59.58 -62 64 C-66.29 64 -70.58 64 -75 64 C-75 68.29 -75 72.58 -75 77 C-79.29 77 -83.58 77 -88 77 C-88 122.54 -88 168.08 -88 215 C-83.71 215 -79.42 215 -75 215 C-74.90234375 224.27734375 -74.90234375 224.27734375 -75 227 C-75.33 227.33 -75.66 227.66 -76 228 C-84.25 228 -92.5 228 -101 228 C-101 173.55 -101 119.1 -101 63 C-92.75 63 -84.5 63 -76 63 C-76 59.04 -76 55.08 -76 51 C-71.71 51 -67.42 51 -63 51 C-63 46.71 -63 42.42 -63 38 C-58.71 38 -54.42 38 -50 38 C-50 34.04 -50 30.08 -50 26 C-41.75 26 -33.5 26 -25 26 C-25 21.71 -25 17.42 -25 13 C-16.75 13 -8.5 13 0 13 C0 8.71 0 4.42 0 0 Z " fill="#4F4F4B" transform="translate(149,45)"/>
<path d="M0 0 C8.25 0 16.5 0 25 0 C25 3.96 25 7.92 25 12 C29.29 12 33.58 12 38 12 C38 16.29 38 20.58 38 25 C42.29 25 46.58 25 51 25 C51 29.29 51 33.58 51 38 C55.29 38 59.58 38 64 38 C64 41.96 64 45.92 64 50 C67.96 50 71.92 50 76 50 C76 54.62 76 59.24 76 64 C72.04 64 68.08 64 64 64 C64 67.96 64 71.92 64 76 C59.71 76 55.42 76 51 76 C51 80.29 51 84.58 51 89 C46.71 89 42.42 89 38 89 C38 92.96 38 96.92 38 101 C32.06 101.495 32.06 101.495 26 102 C25.67 106.29 25.34 110.58 25 115 C16.75 115 8.5 115 0 115 C0 106.09 0 97.18 0 88 C3.96 88 7.92 88 12 88 C12 84.04 12 80.08 12 76 C16.29 76 20.58 76 25 76 C25 71.71 25 67.42 25 63 C29.29 63 33.58 63 38 63 C38 59.04 38 55.08 38 51 C33.71 51 29.42 51 25 51 C25 46.71 25 42.42 25 38 C20.71 38 16.42 38 12 38 C12 34.04 12 30.08 12 26 C8.04 26 4.08 26 0 26 C0 17.42 0 8.84 0 0 Z " fill="#B7A1ED" transform="translate(99,134)"/>
<path d="M0 0 C4.29 0 8.58 0 13 0 C13 3.96 13 7.92 13 12 C21.25 12 29.5 12 38 12 C38 66.45 38 120.9 38 177 C29.75 177 21.5 177 13 177 C13 181.29 13 185.58 13 190 C8.71 190 4.42 190 0 190 C0.020625 191.959375 0.04125 193.91875 0.0625 195.9375 C0.08377188 197.95832876 0.07244053 199.98035801 0 202 C-1 203 -1 203 -3.31665039 203.11352539 C-4.31688232 203.10828857 -5.31711426 203.10305176 -6.34765625 203.09765625 C-7.42724609 203.09443359 -8.50683594 203.09121094 -9.61914062 203.08789062 C-10.75544922 203.07951172 -11.89175781 203.07113281 -13.0625 203.0625 C-14.20267578 203.05798828 -15.34285156 203.05347656 -16.51757812 203.04882812 C-19.34507418 203.0369976 -22.17254345 203.0190615 -25 203 C-25 206.96 -25 210.92 -25 215 C-33.58 215 -42.16 215 -51 215 C-51 210.71 -51 206.42 -51 202 C-42.75 202 -34.5 202 -26 202 C-26 197.71 -26 193.42 -26 189 C-17.75 189 -9.5 189 -1 189 C-1 185.37 -1 181.74 -1 178 C0 177 0 177 2.72265625 176.90234375 C7.36132812 176.95117188 7.36132812 176.95117188 12 177 C12 172.71 12 168.42 12 164 C16.29 164 20.58 164 25 164 C25 118.13 25 72.26 25 25 C20.71 25 16.42 25 12 25 C12 21.04 12 17.08 12 13 C8.04 13 4.08 13 0 13 C0 8.71 0 4.42 0 0 Z " fill="#3C3D3B" transform="translate(264,96)"/>
<path d="M0 0 C7.92 0 15.84 0 24 0 C24 3.96 24 7.92 24 12 C20.04 12 16.08 12 12 12 C12 57.87 12 103.74 12 151 C16.29 151 20.58 151 25 151 C25.09765625 160.27734375 25.09765625 160.27734375 25 163 C24.67 163.33 24.34 163.66 24 164 C16.08 164 8.16 164 0 164 C0 109.88 0 55.76 0 0 Z " fill="#3A3B38" transform="translate(49,109)"/>
<path d="M0 0 C3.96 0 7.92 0 12 0 C12 62.37 12 124.74 12 189 C8.04 189 4.08 189 0 189 C0 126.63 0 64.26 0 0 Z " fill="#373632" transform="translate(11,96)"/>
<path d="M0 0 C3.96 0 7.92 0 12 0 C12 62.37 12 124.74 12 189 C8.04 189 4.08 189 0 189 C0 126.63 0 64.26 0 0 Z " fill="#343432" transform="translate(327,96)"/>
<path d="M0 0 C7.24487049 -0.02464113 14.48971682 -0.0428318 21.73461914 -0.05493164 C24.20142033 -0.05997356 26.66821852 -0.06680691 29.13500977 -0.07543945 C32.67204529 -0.08751125 36.20904145 -0.09322956 39.74609375 -0.09765625 C40.85649521 -0.10281754 41.96689667 -0.10797882 43.11094666 -0.11329651 C44.64242088 -0.11340981 44.64242088 -0.11340981 46.20483398 -0.11352539 C47.10862289 -0.115746 48.0124118 -0.11796661 48.94358826 -0.12025452 C51 0 51 0 52 1 C52 4.96 52 8.92 52 13 C60.25 13 68.5 13 77 13 C77 17.29 77 21.58 77 26 C80.96 26 84.92 26 89 26 C89 29.96 89 33.92 89 38 C97.58 38 106.16 38 115 38 C115 42.29 115 46.58 115 51 C123.25 51 131.5 51 140 51 C140 55.29 140 59.58 140 64 C131.42 64 122.84 64 114 64 C114 60.04 114 56.08 114 52 C105.75 52 97.5 52 89 52 C89 47.71 89 43.42 89 39 C84.71 39 80.42 39 76 39 C76 34.71 76 30.42 76 26 C67.75 26 59.5 26 51 26 C51 21.71 51 17.42 51 13 C34.5 13 18 13 1 13 C1 17.29 1 21.58 1 26 C-7.58 26 -16.16 26 -25 26 C-25 21.71 -25 17.42 -25 13 C-16.75 13 -8.5 13 0 13 C0 8.71 0 4.42 0 0 Z " fill="#52524E" transform="translate(149,7)"/>
<path d="M0 0 C25.08 0 50.16 0 76 0 C76 8.91 76 17.82 76 27 C50.92 27 25.84 27 0 27 C0 18.09 0 9.18 0 0 Z " fill="#B9A3ED" transform="translate(175,222)"/>
<path d="M0 0 C3.96 0 7.92 0 12 0 C12 4.29 12 8.58 12 13 C8.04 13 4.08 13 0 13 C0 16.96 0 20.92 0 25 C-8.25 25 -16.5 25 -25 25 C-25 29.29 -25 33.58 -25 38 C-33.25 38 -41.5 38 -50 38 C-50 42.29 -50 46.58 -50 51 C-54.29 51 -58.58 51 -63 51 C-63 54.96 -63 58.92 -63 63 C-71.58 63 -80.16 63 -89 63 C-89 58.71 -89 54.42 -89 50 C-80.75 50 -72.5 50 -64 50 C-64 45.71 -64 41.42 -64 37 C-59.71 37 -55.42 37 -51 37 C-51 33.04 -51 29.08 -51 25 C-42.75 25 -34.5 25 -26 25 C-26 20.71 -26 16.42 -26 12 C-17.42 12 -8.84 12 0 12 C0 8.04 0 4.08 0 0 Z " fill="#8C8C88" transform="translate(112,33)"/>
<path d="M0 0 C0.33 0 0.66 0 1 0 C1 62.37 1 124.74 1 189 C13.21 189 25.42 189 38 189 C41.07318149 192.07318149 39 197.65386506 39 202 C47.25 202 55.5 202 64 202 C64 206.29 64 210.58 64 215 C67.96 215 71.92 215 76 215 C76 219.29 76 223.58 76 228 C71.71 228 67.42 228 63 228 C63 223.71 63 219.42 63 215 C54.75 215 46.5 215 38 215 C38 211.04 38 207.08 38 203 C29.75 203 21.5 203 13 203 C13 198.71 13 194.42 13 190 C8.71 190 4.42 190 0 190 C0 127.3 0 64.6 0 0 Z " fill="#53534F" transform="translate(10,96)"/>
<path d="M0 0 C8.25 0 16.5 0 25 0 C25 3.96 25 7.92 25 12 C21.04 12 17.08 12 13 12 C13 16.29 13 20.58 13 25 C4.75 25 -3.5 25 -12 25 C-12 29.29 -12 33.58 -12 38 C-16.29 38 -20.58 38 -25 38 C-25 42.29 -25 46.58 -25 51 C-29.29 51 -33.58 51 -38 51 C-38 50.67 -38 50.34 -38 50 C-34.04 50 -30.08 50 -26 50 C-26 46.04 -26 42.08 -26 38 C-33.92 38 -41.84 38 -50 38 C-50 92.12 -50 146.24 -50 202 C-50.33 202 -50.66 202 -51 202 C-51 147.55 -51 93.1 -51 37 C-42.75 37 -34.5 37 -26 37 C-26 33.04 -26 29.08 -26 25 C-21.71 25 -17.42 25 -13 25 C-13 20.71 -13 16.42 -13 12 C-8.71 12 -4.42 12 0 12 C0 8.04 0 4.08 0 0 Z " fill="#363733" transform="translate(99,71)"/>
<path d="M0 0 C3.29172069 -0.02688338 6.58322354 -0.0467821 9.875 -0.0625 C10.81214844 -0.07087891 11.74929688 -0.07925781 12.71484375 -0.08789062 C14.05869141 -0.09272461 14.05869141 -0.09272461 15.4296875 -0.09765625 C16.67081299 -0.10551147 16.67081299 -0.10551147 17.93701172 -0.11352539 C20 0 20 0 22 1 C22.07002839 19.85381463 22.12295786 38.70760294 22.15543652 57.56152058 C22.17091661 66.31539058 22.19202787 75.06917985 22.22631836 83.82299805 C22.25618584 91.45131791 22.27556669 99.07957931 22.28226548 106.70795602 C22.28618226 110.74851127 22.29541076 114.78889928 22.31719017 118.82940102 C22.33751356 122.63048569 22.34384229 126.43133381 22.33932304 130.23246765 C22.34015011 131.62930778 22.34614059 133.02615561 22.35761642 134.42294884 C22.37249375 136.32673329 22.36717716 138.23064393 22.36076355 140.13447571 C22.36352893 141.20099019 22.36629431 142.26750467 22.36914349 143.36633778 C22 146 22 146 20.66495228 147.86659527 C19 149 19 149 16 149 C16 102.8 16 56.6 16 9 C15.34 9 14.68 9 14 9 C14 9.66 14 10.32 14 11 C7.07 10.505 7.07 10.505 0 10 C0 6.7 0 3.4 0 0 Z " fill="#2D2E2A" transform="translate(277,111)"/>
<path d="M0 0 C1.093125 0.00257813 2.18625 0.00515625 3.3125 0.0078125 C4.405625 0.00523437 5.49875 0.00265625 6.625 0 C9.3125 0.1328125 9.3125 0.1328125 10.3125 1.1328125 C10.3125 4.7628125 10.3125 8.3928125 10.3125 12.1328125 C18.5625 12.1328125 26.8125 12.1328125 35.3125 12.1328125 C35.3125 16.4228125 35.3125 20.7128125 35.3125 25.1328125 C43.5625 25.1328125 51.8125 25.1328125 60.3125 25.1328125 C60.3125 29.4228125 60.3125 33.7128125 60.3125 38.1328125 C51.7325 38.1328125 43.1525 38.1328125 34.3125 38.1328125 C34.3125 34.1728125 34.3125 30.2128125 34.3125 26.1328125 C26.0625 26.1328125 17.8125 26.1328125 9.3125 26.1328125 C9.3125 21.8428125 9.3125 17.5528125 9.3125 13.1328125 C5.0225 13.1328125 0.7325 13.1328125 -3.6875 13.1328125 C-3.78515625 3.85546875 -3.78515625 3.85546875 -3.6875 1.1328125 C-2.6875 0.1328125 -2.6875 0.1328125 0 0 Z " fill="#383836" transform="translate(76.6875,272.8671875)"/>
<path d="M0 0 C4.29 0 8.58 0 13 0 C13 4.29 13 8.58 13 13 C9.04 13 5.08 13 1 13 C1.020625 14.959375 1.04125 16.91875 1.0625 18.9375 C1.08377188 20.95832876 1.07244053 22.98035801 1 25 C0 26 0 26 -2.01844788 26.12025452 C-2.90447189 26.11803391 -3.79049591 26.11581329 -4.70336914 26.11352539 C-5.70433121 26.11344986 -6.70529327 26.11337433 -7.73658752 26.11329651 C-8.8251152 26.10813522 -9.91364288 26.10297394 -11.03515625 26.09765625 C-12.14354355 26.0962413 -13.25193085 26.09482635 -14.39390564 26.09336853 C-17.95013069 26.08775033 -21.50629383 26.07519475 -25.0625 26.0625 C-27.46679597 26.05748734 -29.87109292 26.05292403 -32.27539062 26.04882812 C-38.18361777 26.03777499 -44.09179837 26.02049816 -50 26 C-50 21.71 -50 17.42 -50 13 C-33.5 13 -17 13 0 13 C0 8.71 0 4.42 0 0 Z " fill="#363733" transform="translate(200,311)"/>
<path d="M0 0 C16.5 0 33 0 50 0 C50 3.96 50 7.92 50 12 C33.5 12 17 12 0 12 C0 8.04 0 4.08 0 0 Z " fill="#373834" transform="translate(150,362)"/>
<path d="M0 0 C16.5 0 33 0 50 0 C50 3.96 50 7.92 50 12 C33.5 12 17 12 0 12 C0 8.04 0 4.08 0 0 Z " fill="#373733" transform="translate(150,46)"/>
<path d="M0 0 C0.66 0 1.32 0 2 0 C2 46.2 2 92.4 2 140 C0.66666667 140 -0.66666667 140 -2 140 C-2 94.46 -2 48.92 -2 2 C-1.34 2 -0.68 2 0 2 C0 1.34 0 0.68 0 0 Z " fill="#42423E" transform="translate(291,120)"/>
<path d="M0 0 C0.33 0 0.66 0 1 0 C1 62.7 1 125.4 1 190 C-3.29 190 -7.58 190 -12 190 C-12 193.96 -12 197.92 -12 202 C-20.25 202 -28.5 202 -37 202 C-37 197.71 -37 193.42 -37 189 C-24.79 189 -12.58 189 0 189 C0 126.63 0 64.26 0 0 Z " fill="#5B5B58" transform="translate(339,96)"/>
<path d="M0 0 C4.29 0 8.58 0 13 0 C13 0.33 13 0.66 13 1 C9.04 1 5.08 1 1 1 C1 4.3 1 7.6 1 11 C2.98 10.67 4.96 10.34 7 10 C7 9.67 7 9.34 7 9 C12.94 9 18.88 9 25 9 C25 6.36 25 3.72 25 1 C25.33 1 25.66 1 26 1 C26 4.96 26 8.92 26 13 C17.75 13 9.5 13 1 13 C1 17.29 1 21.58 1 26 C-3.29 26 -7.58 26 -12 26 C-12 30.29 -12 34.58 -12 39 C-16.29 39 -20.58 39 -25 39 C-25 38.67 -25 38.34 -25 38 C-21.04 38 -17.08 38 -13 38 C-13 34.04 -13 30.08 -13 26 C-20.92 26 -28.84 26 -37 26 C-37 80.12 -37 134.24 -37 190 C-37.33 190 -37.66 190 -38 190 C-38 135.55 -38 81.1 -38 25 C-29.75 25 -21.5 25 -13 25 C-13 21.04 -13 17.08 -13 13 C-8.71 13 -4.42 13 0 13 C0 8.71 0 4.42 0 0 Z " fill="#73746F" transform="translate(86,83)"/>
<path d="M0 0 C4.29 0 8.58 0 13 0 C13 3.96 13 7.92 13 12 C21.25 12 29.5 12 38 12 C38 16.29 38 20.58 38 25 C29.42 25 20.84 25 12 25 C12 21.04 12 17.08 12 13 C8.04 13 4.08 13 0 13 C0 8.71 0 4.42 0 0 Z " fill="#3E3E3A" transform="translate(289,71)"/>
<path d="M0 0 C0.66 0 1.32 0 2 0 C3.14019527 7.26353415 3.13414171 14.41792913 3.11352539 21.75976562 C3.11324291 23.14023842 3.11340245 24.52071137 3.1139679 25.90118408 C3.11425348 29.62787755 3.10839553 33.35453849 3.10139394 37.08122444 C3.09512047 40.98363198 3.09455345 44.88604035 3.09336853 48.78845215 C3.09026696 56.16888046 3.08206945 63.54929387 3.07201904 70.92971563 C3.06082137 79.33602694 3.05533826 87.74233898 3.05032361 96.14865589 C3.03988581 113.43244587 3.02230919 130.71622135 3 148 C2.01 148 1.02 148 0 148 C-1.09767624 64.16144767 -1.09767624 64.16144767 -1.125 38.5625 C-1.12749756 37.7725766 -1.12999512 36.9826532 -1.13256836 36.16879272 C-1.16472115 24.0891509 -0.65018952 12.06108965 0 0 Z " fill="#2C2C29" transform="translate(52,112)"/>
<path d="M0 0 C3.29172069 -0.02688338 6.58322354 -0.0467821 9.875 -0.0625 C10.81214844 -0.07087891 11.74929688 -0.07925781 12.71484375 -0.08789062 C14.05869141 -0.09272461 14.05869141 -0.09272461 15.4296875 -0.09765625 C16.67081299 -0.10551147 16.67081299 -0.10551147 17.93701172 -0.11352539 C20 0 20 0 22 1 C22 15.52 22 30.04 22 45 C21.67 45 21.34 45 21 45 C20.98018066 44.35039307 20.96036133 43.70078613 20.93994141 43.03149414 C20.84372067 40.04147478 20.73444101 37.05206352 20.625 34.0625 C20.5940625 33.04091797 20.563125 32.01933594 20.53125 30.96679688 C20.49257813 29.95810547 20.45390625 28.94941406 20.4140625 27.91015625 C20.36693115 26.53549194 20.36693115 26.53549194 20.31884766 25.13305664 C19.90196226 21.03666287 18.89322246 17.01950108 18 13 C17.67 57.55 17.34 102.1 17 148 C16.67 148 16.34 148 16 148 C16 102.13 16 56.26 16 9 C15.34 9 14.68 9 14 9 C14 9.66 14 10.32 14 11 C7.07 10.505 7.07 10.505 0 10 C0 6.7 0 3.4 0 0 Z " fill="#333430" transform="translate(277,111)"/>
<path d="M0 0 C6.93 0 13.86 0 21 0 C21 3.96 21 7.92 21 12 C19.39318359 12.09087891 19.39318359 12.09087891 17.75390625 12.18359375 C16.35675609 12.26798537 14.95962143 12.35263406 13.5625 12.4375 C12.50192383 12.49647461 12.50192383 12.49647461 11.41992188 12.55664062 C7.91309581 12.47624438 7.91309581 12.47624438 5 14 C4.89147769 15.75855767 4.85312758 17.52147399 4.84178162 19.28334045 C4.8319928 20.42904007 4.82220398 21.57473969 4.81211853 22.75515747 C4.80636307 24.02326263 4.8006076 25.2913678 4.79467773 26.59790039 C4.78510434 27.93793544 4.77509458 29.27796744 4.76467896 30.61799622 C4.73756542 34.26656149 4.7165909 37.91513979 4.69667697 41.56375051 C4.67485705 45.37280116 4.64744889 49.18181139 4.62062073 52.99082947 C4.57063966 60.20854822 4.52572099 67.42628934 4.48259836 74.64405197 C4.43327215 82.85918128 4.37833696 91.07427004 4.32291877 99.28936017 C4.20901565 116.19286932 4.10219485 133.09641609 4 150 C3.67 150 3.34 150 3 150 C2.67 101.49 2.34 52.98 2 3 C1.34 3 0.68 3 0 3 C0 2.01 0 1.02 0 0 Z " fill="#33332F" transform="translate(52,109)"/>
<path d="M0 0 C4.29 0 8.58 0 13 0 C13 3.96 13 7.92 13 12 C21.25 12 29.5 12 38 12 C38 65.79 38 119.58 38 175 C37.67 175 37.34 175 37 175 C37 121.54 37 68.08 37 13 C29.08 13 21.16 13 13 13 C13 16.96 13 20.92 13 25 C12.67 25 12.34 25 12 25 C12 21.04 12 17.08 12 13 C8.04 13 4.08 13 0 13 C0 8.71 0 4.42 0 0 Z " fill="#87867F" transform="translate(264,96)"/>
<path d="M0 0 C8.25 0 16.5 0 25 0 C25 3.96 25 7.92 25 12 C16.75 12 8.5 12 0 12 C0 8.04 0 4.08 0 0 Z " fill="#383935" transform="translate(238,324)"/>
<path d="M0 0 C8.25 0 16.5 0 25 0 C25 3.96 25 7.92 25 12 C16.75 12 8.5 12 0 12 C0 8.04 0 4.08 0 0 Z " fill="#383835" transform="translate(87,324)"/>
<path d="M0 0 C8.25 0 16.5 0 25 0 C25 3.96 25 7.92 25 12 C16.75 12 8.5 12 0 12 C0 8.04 0 4.08 0 0 Z " fill="#373734" transform="translate(213,299)"/>
<path d="M0 0 C8.25 0 16.5 0 25 0 C25 3.96 25 7.92 25 12 C16.75 12 8.5 12 0 12 C0 8.04 0 4.08 0 0 Z " fill="#343431" transform="translate(112,299)"/>
<path d="M0 0 C8.25 0 16.5 0 25 0 C25 3.96 25 7.92 25 12 C16.75 12 8.5 12 0 12 C0 8.04 0 4.08 0 0 Z " fill="#3E3F3A" transform="translate(264,58)"/>
<path d="M0 0 C8.25 0 16.5 0 25 0 C25 3.96 25 7.92 25 12 C16.75 12 8.5 12 0 12 C0 8.04 0 4.08 0 0 Z " fill="#363631" transform="translate(61,58)"/>
<path d="M0 0 C8.25 0 16.5 0 25 0 C25 3.96 25 7.92 25 12 C16.75 12 8.5 12 0 12 C0 8.04 0 4.08 0 0 Z " fill="#393935" transform="translate(87,46)"/>
<path d="M0 0 C4.29 0 8.58 0 13 0 C13 4.29 13 8.58 13 13 C9.04 13 5.08 13 1 13 C1.020625 14.959375 1.04125 16.91875 1.0625 18.9375 C1.08377188 20.95832876 1.07244053 22.98035801 1 25 C0 26 0 26 -2.01844788 26.12025452 C-2.90447189 26.11803391 -3.79049591 26.11581329 -4.70336914 26.11352539 C-5.70433121 26.11344986 -6.70529327 26.11337433 -7.73658752 26.11329651 C-8.8251152 26.10813522 -9.91364288 26.10297394 -11.03515625 26.09765625 C-12.14354355 26.0962413 -13.25193085 26.09482635 -14.39390564 26.09336853 C-17.95013069 26.08775033 -21.50629383 26.07519475 -25.0625 26.0625 C-27.46679597 26.05748734 -29.87109292 26.05292403 -32.27539062 26.04882812 C-38.18361504 26.03777499 -44.0918031 26.02101917 -50 26 C-49.67 24.35 -49.34 22.7 -49 21 C-48.67 21.99 -48.34 22.98 -48 24 C-47.26523438 23.9278125 -46.53046875 23.855625 -45.7734375 23.78125 C-36.26967215 22.99473149 -26.78195226 22.88744786 -17.25 22.875 C-16.23277863 22.87125366 -16.23277863 22.87125366 -15.19500732 22.86743164 C-13.23938879 22.86152753 -11.28375017 22.8642075 -9.328125 22.8671875 C-8.1824707 22.86831543 -7.03681641 22.86944336 -5.85644531 22.87060547 C-3 23 -3 23 0 24 C0 16.08 0 8.16 0 0 Z " fill="#64625F" transform="translate(200,311)"/>
<path d="M0 0 C7.92 0 15.84 0 24 0 C24 3.96 24 7.92 24 12 C16.08 12 8.16 12 0 12 C0 8.04 0 4.08 0 0 Z " fill="#363633" transform="translate(49,299)"/>
<path d="M0 0 C7.92 0 15.84 0 24 0 C24 3.96 24 7.92 24 12 C16.08 12 8.16 12 0 12 C0 8.04 0 4.08 0 0 Z " fill="#343530" transform="translate(24,84)"/>
<path d="M0 0 C7.92 0 15.84 0 24 0 C24 3.96 24 7.92 24 12 C16.08 12 8.16 12 0 12 C0 8.04 0 4.08 0 0 Z " fill="#393935" transform="translate(125,58)"/>
<path d="M0 0 C7.92 0 15.84 0 24 0 C24 3.96 24 7.92 24 12 C16.08 12 8.16 12 0 12 C0 8.04 0 4.08 0 0 Z " fill="#393A36" transform="translate(201,58)"/>
<path d="M0 0 C7.92 0 15.84 0 24 0 C24 3.96 24 7.92 24 12 C16.08 12 8.16 12 0 12 C0 8.04 0 4.08 0 0 Z " fill="#353632" transform="translate(239,46)"/>
<path d="M0 0 C1.093125 0.00257813 2.18625 0.00515625 3.3125 0.0078125 C4.405625 0.00523437 5.49875 0.00265625 6.625 0 C9.3125 0.1328125 9.3125 0.1328125 10.3125 1.1328125 C10.3125 4.7628125 10.3125 8.3928125 10.3125 12.1328125 C18.5625 12.1328125 26.8125 12.1328125 35.3125 12.1328125 C35.3125 12.4628125 35.3125 12.7928125 35.3125 13.1328125 C27.0625 13.1328125 18.8125 13.1328125 10.3125 13.1328125 C10.3125 17.0928125 10.3125 21.0528125 10.3125 25.1328125 C26.8125 25.1328125 43.3125 25.1328125 60.3125 25.1328125 C60.3125 25.4628125 60.3125 25.7928125 60.3125 26.1328125 C52.0625 26.1328125 43.8125 26.1328125 35.3125 26.1328125 C35.3125 30.0928125 35.3125 34.0528125 35.3125 38.1328125 C34.9825 38.1328125 34.6525 38.1328125 34.3125 38.1328125 C34.3125 34.1728125 34.3125 30.2128125 34.3125 26.1328125 C26.0625 26.1328125 17.8125 26.1328125 9.3125 26.1328125 C9.3125 21.8428125 9.3125 17.5528125 9.3125 13.1328125 C5.0225 13.1328125 0.7325 13.1328125 -3.6875 13.1328125 C-3.78515625 3.85546875 -3.78515625 3.85546875 -3.6875 1.1328125 C-2.6875 0.1328125 -2.6875 0.1328125 0 0 Z " fill="#373633" transform="translate(76.6875,272.8671875)"/>
<path d="M0 0 C7.92 0 15.84 0 24 0 C24 3.63 24 7.26 24 11 C16.08 11 8.16 11 0 11 C0 7.37 0 3.74 0 0 Z " fill="#373634" transform="translate(125,350)"/>
<path d="M0 0 C7.92 0 15.84 0 24 0 C24 3.63 24 7.26 24 11 C16.08 11 8.16 11 0 11 C0 7.37 0 3.74 0 0 Z " fill="#343531" transform="translate(201,21)"/>
<path d="M0 0 C7.92 0 15.84 0 24 0 C24 3.63 24 7.26 24 11 C16.08 11 8.16 11 0 11 C0 7.37 0 3.74 0 0 Z " fill="#363733" transform="translate(125,21)"/>
<path d="M0 0 C6.93 0 13.86 0 21 0 C21 3.3 21 6.6 21 10 C14.4 10 7.8 10 1 10 C0.67 10.66 0.34 11.32 0 12 C0 8.04 0 4.08 0 0 Z " fill="#343431" transform="translate(277,299)"/>
<path d="M0 0 C6.93 0 13.86 0 21 0 C21 3.3 21 6.6 21 10 C20.34 10 19.68 10 19 10 C19 9.34 19 8.68 19 8 C16.72844502 8.08702126 14.45769257 8.19519522 12.1875 8.3125 C10.29064453 8.39951172 10.29064453 8.39951172 8.35546875 8.48828125 C4.88046571 9.01822933 4.11622676 9.37756617 2 12 C1.34 12 0.68 12 0 12 C0 8.04 0 4.08 0 0 Z " fill="#33342F" transform="translate(302,84)"/>
<path d="M0 0 C0.33 0 0.66 0 1 0 C1 3.96 1 7.92 1 12 C9.25 12 17.5 12 26 12 C26 12.33 26 12.66 26 13 C17.75 13 9.5 13 1 13 C1 16.96 1 20.92 1 25 C-6.92 25 -14.84 25 -23 25 C-23 24.34 -23 23.68 -23 23 C-16.4 23 -9.8 23 -3 23 C-3 19.7 -3 16.4 -3 13 C-9.93 13 -16.86 13 -24 13 C-24 21.25 -24 29.5 -24 38 C-24.33 38 -24.66 38 -25 38 C-25 29.42 -25 20.84 -25 12 C-16.75 12 -8.5 12 0 12 C0 8.04 0 4.08 0 0 Z " fill="#686662" transform="translate(301,286)"/>
<path d="M0 0 C4.29 0 8.58 0 13 0 C13 4.29 13 8.58 13 13 C8.71 13 4.42 13 0 13 C0 8.71 0 4.42 0 0 Z " fill="#41413E" transform="translate(137,311)"/>
<path d="M0 0 C3.96 0 7.92 0 12 0 C12 4.29 12 8.58 12 13 C8.04 13 4.08 13 0 13 C0 8.71 0 4.42 0 0 Z " fill="#343431" transform="translate(264,311)"/>
<path d="M0 0 C3.96 0 7.92 0 12 0 C12 4.29 12 8.58 12 13 C8.04 13 4.08 13 0 13 C0 8.71 0 4.42 0 0 Z " fill="#3B3B37" transform="translate(264,96)"/>
<path d="M0 0 C3.96 0 7.92 0 12 0 C12 3.96 12 7.92 12 12 C8.04 12 4.08 12 0 12 C0 8.04 0 4.08 0 0 Z " fill="#373734" transform="translate(226,337)"/>
<path d="M0 0 C3.96 0 7.92 0 12 0 C12 3.96 12 7.92 12 12 C8.04 12 4.08 12 0 12 C0 8.04 0 4.08 0 0 Z " fill="#373734" transform="translate(112,337)"/>
<path d="M0 0 C3.96 0 7.92 0 12 0 C12 3.96 12 7.92 12 12 C8.04 12 4.08 12 0 12 C0 8.04 0 4.08 0 0 Z " fill="#2F302C" transform="translate(289,71)"/>
<path d="M0 0 C3.96 0 7.92 0 12 0 C12 3.96 12 7.92 12 12 C8.04 12 4.08 12 0 12 C0 8.04 0 4.08 0 0 Z " fill="#373833" transform="translate(49,71)"/>
<path d="M0 0 C3.96 0 7.92 0 12 0 C12 3.96 12 7.92 12 12 C8.04 12 4.08 12 0 12 C0 8.04 0 4.08 0 0 Z " fill="#383834" transform="translate(226,33)"/>
<path d="M0 0 C3.96 0 7.92 0 12 0 C12 3.96 12 7.92 12 12 C8.04 12 4.08 12 0 12 C0 8.04 0 4.08 0 0 Z " fill="#383833" transform="translate(112,33)"/>
<path d="M0 0 C0.33 0 0.66 0 1 0 C1 3.63 1 7.26 1 11 C4.96 11 8.92 11 13 11 C13 7.37 13 3.74 13 0 C13.33 0 13.66 0 14 0 C14 3.63 14 7.26 14 11 C22.25 11 30.5 11 39 11 C39 11.33 39 11.66 39 12 C30.75 12 22.5 12 14 12 C14 15.96 14 19.92 14 24 C30.5 24 47 24 64 24 C64 24.33 64 24.66 64 25 C55.75 25 47.5 25 39 25 C39 28.96 39 32.92 39 37 C38.67 37 38.34 37 38 37 C38 33.04 38 29.08 38 25 C29.75 25 21.5 25 13 25 C13 20.71 13 16.42 13 12 C8.71 12 4.42 12 0 12 C0 8.04 0 4.08 0 0 Z " fill="#8D8D87" transform="translate(73,274)"/>
<path d="M0 0 C4.29 0 8.58 0 13 0 C13 0.33 13 0.66 13 1 C9.04 1 5.08 1 1 1 C1 4.3 1 7.6 1 11 C2.98 10.67 4.96 10.34 7 10 C7 9.67 7 9.34 7 9 C12.94 9 18.88 9 25 9 C25 6.36 25 3.72 25 1 C25.33 1 25.66 1 26 1 C26 4.96 26 8.92 26 13 C17.75 13 9.5 13 1 13 C1 17.29 1 21.58 1 26 C0.67 26 0.34 26 0 26 C0 17.42 0 8.84 0 0 Z " fill="#565651" transform="translate(86,83)"/>
<path d="M0 0 C3.96 0 7.92 0 12 0 C12 3.63 12 7.26 12 11 C8.04 11 4.08 11 0 11 C0 7.37 0 3.74 0 0 Z " fill="#343431" transform="translate(264,274)"/>
<path d="M0 0 C6.27 0 12.54 0 19 0 C19 2.31 19 4.62 19 7 C16.72942623 7.05398987 14.45848712 7.09278742 12.1875 7.125 C10.29064453 7.15980469 10.29064453 7.15980469 8.35546875 7.1953125 C5 7 5 7 2 5 C2 5.66 2 6.32 2 7 C1.34 7 0.68 7 0 7 C0 4.69 0 2.38 0 0 Z " fill="#2C2E29" transform="translate(130,59)"/>
<path d="M0 0 C3.63 0 7.26 0 11 0 C11.09765625 7.71484375 11.09765625 7.71484375 11 10 C10 11 10 11 7.71484375 11.09765625 C5.14322917 11.06510417 2.57161458 11.03255208 0 11 C0 7.37 0 3.74 0 0 Z " fill="#363634" transform="translate(201,312)"/>
<path d="M0 0 C6.27 0 12.54 0 19 0 C19 1.98 19 3.96 19 6 C16.8124008 6 14.62476262 5.97587303 12.4375 5.9375 C9.13990053 5.75051638 9.13990053 5.75051638 7 7 C4.6670134 7.04022391 2.33293334 7.04320247 0 7 C0 4.69 0 2.38 0 0 Z " fill="#2C2D28" transform="translate(201,59)"/>
<path d="M0 0 C4.29 0 8.58 0 13 0 C13 0.33 13 0.66 13 1 C9.04 1 5.08 1 1 1 C1 9.25 1 17.5 1 26 C-3.29 26 -7.58 26 -12 26 C-12 29.96 -12 33.92 -12 38 C-12.33 38 -12.66 38 -13 38 C-13 34.04 -13 30.08 -13 26 C-21.25 26 -29.5 26 -38 26 C-38 25.67 -38 25.34 -38 25 C-29.75 25 -21.5 25 -13 25 C-13 21.37 -13 17.74 -13 14 C-12 13 -12 13 -9.27734375 12.90234375 C-6.18489583 12.93489583 -3.09244792 12.96744792 0 13 C0 8.71 0 4.42 0 0 Z M-12 14 C-12 17.63 -12 21.26 -12 25 C-8.04 25 -4.08 25 0 25 C0 21.37 0 17.74 0 14 C-3.96 14 -7.92 14 -12 14 Z " fill="#8B8B84" transform="translate(276,260)"/>
<path d="M0 0 C0.33 0 0.66 0 1 0 C1 3.96 1 7.92 1 12 C9.25 12 17.5 12 26 12 C26 20.58 26 29.16 26 38 C25.67 38 25.34 38 25 38 C25 29.75 25 21.5 25 13 C17.08 13 9.16 13 1 13 C1 16.96 1 20.92 1 25 C0.67 25 0.34 25 0 25 C0 21.04 0 17.08 0 13 C-8.25 13 -16.5 13 -25 13 C-25 12.67 -25 12.34 -25 12 C-16.75 12 -8.5 12 0 12 C0 8.04 0 4.08 0 0 Z " fill="#8A8A84" transform="translate(48,286)"/>
<path d="M0 0 C5.94 0 11.88 0 18 0 C17.67 1.65 17.34 3.3 17 5 C12.05 5 7.1 5 2 5 C1.67 5.99 1.34 6.98 1 8 C0.67 5.36 0.34 2.72 0 0 Z " fill="#2A2B26" transform="translate(268,59)"/>
<path d="M0 0 C2.64 0 5.28 0 8 0 C7.34 1.65 6.68 3.3 6 5 C8.31 5 10.62 5 13 5 C13 5.99 13 6.98 13 8 C11.2984375 8.2165625 11.2984375 8.2165625 9.5625 8.4375 C6.19222799 8.61171478 6.19222799 8.61171478 5 10 C3.35 10 1.7 10 0 10 C0 6.7 0 3.4 0 0 Z " fill="#31322F" transform="translate(126,351)"/>
<path d="M0 0 C3.96 0 7.92 0 12 0 C12 4.29 12 8.58 12 13 C8.04 13 4.08 13 0 13 C0 12.67 0 12.34 0 12 C2.64 12 5.28 12 8 12 C8 8.37 8 4.74 8 1 C5.36 1 2.72 1 0 1 C0 0.67 0 0.34 0 0 Z " fill="#3F3E3B" transform="translate(264,311)"/>
<path d="M0 0 C3.96 0 7.92 0 12 0 C12 0.33 12 0.66 12 1 C9.36 1 6.72 1 4 1 C4 4.63 4 8.26 4 12 C6.64 12 9.28 12 12 12 C12 12.33 12 12.66 12 13 C8.04 13 4.08 13 0 13 C0 8.71 0 4.42 0 0 Z " fill="#3E3D3B" transform="translate(74,311)"/>
<path d="M0 0 C2.97 0 5.94 0 9 0 C7.02 0.99 7.02 0.99 5 2 C4.29823412 4.41679707 4.29823412 4.41679707 4.25 7.125 C4.19328125 8.03507812 4.1365625 8.94515625 4.078125 9.8828125 C4.05234375 10.58148438 4.0265625 11.28015625 4 12 C6.64 12 9.28 12 12 12 C12 12.33 12 12.66 12 13 C8.04 13 4.08 13 0 13 C0 8.71 0 4.42 0 0 Z " fill="#403F3B" transform="translate(74,96)"/>
<path d="M0 0 C1.98 0.99 1.98 0.99 4 2 C4 3.98 4 5.96 4 8 C6.64 8 9.28 8 12 8 C11.360625 8.309375 10.72125 8.61875 10.0625 8.9375 C8.06389179 9.8345163 8.06389179 9.8345163 7 11 C9.97 11.495 9.97 11.495 13 12 C13 12.33 13 12.66 13 13 C8.71 13 4.42 13 0 13 C0 8.71 0 4.42 0 0 Z " fill="#E5E6E0" transform="translate(289,58)"/>
<path d="M0 0 C0.66 0 1.32 0 2 0 C2 2.97 2 5.94 2 9 C0.66666667 8.33333333 -0.66666667 7.66666667 -2 7 C-2.33 7.66 -2.66 8.32 -3 9 C-3 8.34 -3 7.68 -3 7 C-3.66 7.66 -4.32 8.32 -5 9 C-8.95592656 8.68603757 -12.24483454 8.25172182 -16 7 C-16 6.34 -16 5.68 -16 5 C-10.91913204 4.15318867 -6.15171623 3.90961901 -1 4 C-0.67 2.68 -0.34 1.36 0 0 Z " fill="#333430" transform="translate(286,59)"/>
<path d="M0 0 C3.96 0 7.92 0 12 0 C11.67 1.32 11.34 2.64 11 4 C7.7 4 4.4 4 1 4 C1 6.31 1 8.62 1 11 C4.63 11 8.26 11 12 11 C12 11.33 12 11.66 12 12 C8.04 12 4.08 12 0 12 C0 8.04 0 4.08 0 0 Z " fill="#2E2F2A" transform="translate(226,33)"/>
<path d="M0 0 C5.28 0 10.56 0 16 0 C16.33 1.32 16.66 2.64 17 4 C11.39 4 5.78 4 0 4 C0 2.68 0 1.36 0 0 Z " fill="#3E3D38" transform="translate(29,92)"/>
<path d="M0 0 C0.33 0 0.66 0 1 0 C1 3.96 1 7.92 1 12 C9.25 12 17.5 12 26 12 C26 12.33 26 12.66 26 13 C17.75 13 9.5 13 1 13 C1 16.96 1 20.92 1 25 C0.67 25 0.34 25 0 25 C0 21.04 0 17.08 0 13 C-3.96 13 -7.92 13 -12 13 C-12 12.67 -12 12.34 -12 12 C-8.04 12 -4.08 12 0 12 C0 8.04 0 4.08 0 0 Z " fill="#8B8A85" transform="translate(301,71)"/>
<path d="M0 0 C1.65 0 3.3 0 5 0 C5 4.29 5 8.58 5 13 C1.04 13 -2.92 13 -7 13 C-7 12.67 -7 12.34 -7 12 C-4.36 12 -1.72 12 1 12 C0.67 8.04 0.34 4.08 0 0 Z " fill="#40413D" transform="translate(271,96)"/>
<path d="M0 0 C1.65 0 3.3 0 5 0 C5 3.96 5 7.92 5 12 C3.35 12 1.7 12 0 12 C0 8.04 0 4.08 0 0 Z " fill="#393935" transform="translate(289,71)"/>
<path d="M0 0 C3.96 0 7.92 0 12 0 C12.125 8.75 12.125 8.75 11 11 C10.01 11 9.02 11 8 11 C8 8.03 8 5.06 8 2 C5.36 2 2.72 2 0 2 C0 1.34 0 0.68 0 0 Z " fill="#F0F1E9" transform="translate(264,109)"/>
<path d="M0 0 C0.99 0 1.98 0 3 0 C3 3.96 3 7.92 3 12 C-0.96 12 -4.92 12 -9 12 C-8.67 10.68 -8.34 9.36 -8 8 C-8 8.99 -8 9.98 -8 11 C-5.36 11 -2.72 11 0 11 C0 7.37 0 3.74 0 0 Z " fill="#2F2F2B" transform="translate(235,337)"/>
<path d="M0 0 C3.96 0 7.92 0 12 0 C12 0.33 12 0.66 12 1 C9.36 1 6.72 1 4 1 C4 3.97 4 6.94 4 10 C5.65 10 7.3 10 9 10 C9 10.33 9 10.66 9 11 C6.36 11 3.72 11 1 11 C0.67 7.37 0.34 3.74 0 0 Z " fill="#4A4A45" transform="translate(74,273)"/>
<path d="M0 0 C0.91007812 0.10183594 1.82015625 0.20367187 2.7578125 0.30859375 C3.45648438 0.39238281 4.15515625 0.47617188 4.875 0.5625 C4.875 1.5525 4.875 2.5425 4.875 3.5625 C-1.065 3.5625 -7.005 3.5625 -13.125 3.5625 C-13.125 3.2325 -13.125 2.9025 -13.125 2.5625 C-11.145 2.5625 -9.165 2.5625 -7.125 2.5625 C-7.125 1.9025 -7.125 1.2425 -7.125 0.5625 C-4.50184968 -0.74907516 -2.89466564 -0.33399988 0 0 Z " fill="#3A3B37" transform="translate(75.125,65.4375)"/>
<path d="M0 0 C1.32 0 2.64 0 4 0 C4 3.63 4 7.26 4 11 C2.68 11 1.36 11 0 11 C-1.37432457 7.18243176 -0.67975039 3.92744671 0 0 Z " fill="#393936" transform="translate(82,59)"/>
<path d="M0 0 C0.99 0 1.98 0 3 0 C3 3.3 3 6.6 3 10 C-0.3 10 -3.6 10 -7 10 C-7 9.34 -7 8.68 -7 8 C-4.69 8 -2.38 8 0 8 C0 5.36 0 2.72 0 0 Z " fill="#3C3D39" transform="translate(272,275)"/>
<path d="M0 0 C1.32 0 2.64 0 4 0 C4.66 3.3 5.32 6.6 6 10 C4.02 10 2.04 10 0 10 C0 6.7 0 3.4 0 0 Z " fill="#353631" transform="translate(264,59)"/>
<path d="M0 0 C2.64 0 5.28 0 8 0 C8 3.63 8 7.26 8 11 C7.67 11 7.34 11 7 11 C7 7.7 7 4.4 7 1 C6.01 1.33 5.02 1.66 4 2 C3.67 4.31 3.34 6.62 3 9 C2.01 9 1.02 9 0 9 C0 6.03 0 3.06 0 0 Z " fill="#302F2C" transform="translate(78,274)"/>
<path d="M0 0 C0.99 0 1.98 0 3 0 C3 3.63 3 7.26 3 11 C1.68 11 0.36 11 -1 11 C-1.02688151 9.35425434 -1.04634123 7.70838587 -1.0625 6.0625 C-1.07410156 5.14597656 -1.08570313 4.22945313 -1.09765625 3.28515625 C-1 1 -1 1 0 0 Z " fill="#2D2C29" transform="translate(269,97)"/>
<path d="M0 0 C6.27 0 12.54 0 19 0 C19 0.66 19 1.32 19 2 C4.99110546 3.7433291 4.99110546 3.7433291 0 0 Z " fill="#F0F1EC" transform="translate(277,311)"/>
<path d="M0 0 C4.62 0 9.24 0 14 0 C14 4.29 14 8.58 14 13 C13.67 13 13.34 13 13 13 C13 9.37 13 5.74 13 2 C12.01 2.33 11.02 2.66 10 3 C8.26675881 2.91538508 6.53607188 2.76395645 4.8125 2.5625 C3.91144531 2.46066406 3.01039062 2.35882813 2.08203125 2.25390625 C1.39496094 2.17011719 0.70789063 2.08632813 0 2 C0 1.34 0 0.68 0 0 Z " fill="#ECEDE6" transform="translate(123,311)"/>
<path d="M0 0 C0.33 1.32 0.66 2.64 1 4 C-3.29 4 -7.58 4 -12 4 C-11.67 3.01 -11.34 2.02 -11 1 C-5.555 0.505 -5.555 0.505 0 0 Z " fill="#3C3C39" transform="translate(72,117)"/>
<path d="M0 0 C2.31 0 4.62 0 7 0 C6.01 0.33 5.02 0.66 4 1 C4 4.63 4 8.26 4 12 C3.34 12 2.68 12 2 12 C0.78306124 9.56612247 0.68040104 7.58161154 0.4375 4.875 C0.35371094 3.96492188 0.26992187 3.05484375 0.18359375 2.1171875 C0.12300781 1.41851562 0.06242187 0.71984375 0 0 Z " fill="#F0F1E7" transform="translate(74,109)"/>
<path d="M0 0 C0.99 0 1.98 0 3 0 C3 3.96 3 7.92 3 12 C2.01 12 1.02 12 0 12 C0 8.04 0 4.08 0 0 Z " fill="#2F2F2C" transform="translate(112,337)"/>
<path d="M0 0 C3.96 0 7.92 0 12 0 C11.67 0.99 11.34 1.98 11 3 C7.04 3 3.08 3 -1 3 C-0.67 2.01 -0.34 1.02 0 0 Z " fill="#3D3E3A" transform="translate(278,118)"/>
<path d="M0 0 C0.99 0 1.98 0 3 0 C3 3.96 3 7.92 3 12 C2.01 12 1.02 12 0 12 C0 8.04 0 4.08 0 0 Z " fill="#2B2B28" transform="translate(52,71)"/>
<path d="M0 0 C3.3 0 6.6 0 10 0 C9.01 0.495 9.01 0.495 8 1 C8 1.99 8 2.98 8 4 C5.36 4.33 2.72 4.66 0 5 C0 3.35 0 1.7 0 0 Z " fill="#2F2F2B" transform="translate(113,33)"/>
<path d="M0 0 C5.28 0 10.56 0 16 0 C15.67 0.99 15.34 1.98 15 3 C10.05 2.67 5.1 2.34 0 2 C0 1.34 0 0.68 0 0 Z " fill="#ECEDE7" transform="translate(223,311)"/>
<path d="M0 0 C3.3 0 6.6 0 10 0 C10 0.99 10 1.98 10 3 C8.329375 3.2165625 8.329375 3.2165625 6.625 3.4375 C3.17857953 3.78372035 3.17857953 3.78372035 1 5 C0.67 3.35 0.34 1.7 0 0 Z " fill="#292926" transform="translate(129,356)"/>
<path d="M0 0 C0.99 0 1.98 0 3 0 C3 2.97 3 5.94 3 9 C2.01 9.33 1.02 9.66 0 10 C0 6.7 0 3.4 0 0 Z " fill="#32332F" transform="translate(222,59)"/>
<path d="M0 0 C0.99 0 1.98 0 3 0 C3.33 2.64 3.66 5.28 4 8 C2.68 8.33 1.36 8.66 0 9 C0 6.03 0 3.06 0 0 Z " fill="#2C2B29" transform="translate(78,312)"/>
<path d="M0 0 C1.99897128 0.33944795 3.99875639 0.67421616 6 1 C6 1.33 6 1.66 6 2 C0.39 2 -5.22 2 -11 2 C-11 1.34 -11 0.68 -11 0 C-6.93605135 -0.8505939 -4.01731056 -1.00432764 0 0 Z " fill="#3D3D39" transform="translate(212,68)"/>
<path d="M0 0 C0.33 0 0.66 0 1 0 C1 3.96 1 7.92 1 12 C-1.31 12 -3.62 12 -6 12 C-5.34 11.67 -4.68 11.34 -4 11 C-4 10.34 -4 9.68 -4 9 C-2.68 9 -1.36 9 0 9 C0 6.03 0 3.06 0 0 Z " fill="#2E2F2B" transform="translate(156,46)"/>
<path d="M0 0 C1.32 0.33 2.64 0.66 4 1 C4 1.99 4 2.98 4 4 C5.98 4 7.96 4 10 4 C10 4.33 10 4.66 10 5 C6.04 5 2.08 5 -2 5 C-1.34 4.67 -0.68 4.34 0 4 C0 2.68 0 1.36 0 0 Z " fill="#EEF1E6" transform="translate(76,306)"/>
</svg>
